<?xml version="1.0" encoding="UTF-8" standalone="no"?>
<!-- Created with Inkscape (http://www.inkscape.org/) -->

<svg
   width="427.52341"
   height="272.75549"
   viewBox="0 0 427.52341 272.75549"
   version="1.1"
   id="svg5"
   inkscape:version="1.2 (dc2aeda, 2022-05-15)"
   sodipodi:docname="arzt-log-workingfile.svg"
   xmlns:inkscape="http://www.inkscape.org/namespaces/inkscape"
   xmlns:sodipodi="http://sodipodi.sourceforge.net/DTD/sodipodi-0.dtd"
   xmlns="http://www.w3.org/2000/svg"
   xmlns:svg="http://www.w3.org/2000/svg">
  <sodipodi:namedview
     id="namedview7"
     pagecolor="#ffffff"
     bordercolor="#000000"
     borderopacity="0.25"
     inkscape:showpageshadow="2"
     inkscape:pageopacity="0.0"
     inkscape:pagecheckerboard="0"
     inkscape:deskcolor="#d1d1d1"
     inkscape:document-units="px"
     showgrid="false"
     inkscape:zoom="0.98549918"
     inkscape:cx="144.08941"
     inkscape:cy="300.3554"
     inkscape:window-width="1440"
     inkscape:window-height="900"
     inkscape:window-x="0"
     inkscape:window-y="0"
     inkscape:window-maximized="0"
     inkscape:current-layer="layer1" />
  <defs
     id="defs2" />
  <g
     inkscape:label="Layer 1"
     inkscape:groupmode="layer"
     id="layer1"
     transform="translate(-5.4136901,-6.4877706)">
    <g
       id="g1661"
       inkscape:export-filename="Arzt/img/arzt.png"
       inkscape:export-xdpi="96"
       inkscape:export-ydpi="96">
      <g
         id="g12265"
         inkscape:export-filename="arzt.png"
         inkscape:export-xdpi="96"
         inkscape:export-ydpi="96"
         transform="matrix(0.58207254,0,0,0.54656394,2.2625298,2.9417892)">
        <path
           style="fill:#00aa9c;fill-opacity:1;stroke:none;stroke-width:3.1797;stroke-dasharray:none;stroke-opacity:1"
           d="M 116.42725,505.15296 C 88.752799,502.98831 62.8202,490.70855 42.800466,470.28876 28.880687,456.09082 14.204603,433.01431 8.548209,416.43091 0.09348307,391.64337 8.518069,376.25757 36.554135,365.28376 c 14.422341,-5.64515 29.758716,-9.2573 76.501825,-18.01832 32.48589,-6.0888 50.87057,-9.93423 65.71377,-13.74497 l 8.1259,-2.0862 2.8264,2.10466 c 1.55452,1.15756 7.59595,5.30454 13.42539,9.21551 8.68069,5.82388 10.94539,7.04227 12.51285,6.73187 3.21428,-0.63652 18.50945,-7.85669 27.98575,-13.21083 19.25755,-10.88058 35.35543,-23.08188 50.67992,-38.41255 14.24338,-14.24913 24.24036,-27.29777 33.04611,-43.13373 4.01024,-7.21187 9.78276,-20.63157 10.79008,-25.08429 l 0.55948,-2.4731 0.53571,2.8264 c 0.93046,4.90909 0.64597,35.47901 -0.42845,46.03812 -3.46666,34.06982 -12.61554,65.1703 -28.23706,95.98843 -15.32011,30.22349 -33.3277,54.16342 -58.33571,77.55358 -40.89479,38.24918 -91.67962,59.02789 -135.82885,55.57462 z"
           id="path6331" />
        <path
           style="fill:#00c6b6;fill-opacity:1;stroke:none;stroke-width:1.76445;stroke-dasharray:none;stroke-opacity:1"
           d="m 210.99608,340.5339 c -3.55519,-2.22649 -7.83887,-5.14894 -14.67373,-10.01082 l -1.88458,-1.34057 3.06088,-0.91119 c 56.65946,-16.86679 96.36411,-41.57835 123.38166,-76.79083 1.52973,-1.99374 2.83974,-3.56658 2.91112,-3.4952 0.0714,0.0714 -0.7417,1.69925 -1.80683,3.6175 -19.3427,34.83526 -52.75164,65.57549 -92.40962,85.02792 -6.21659,3.04927 -13.76334,6.4604 -14.28127,6.45513 -0.12455,-0.001 -2.05849,-1.14964 -4.29763,-2.55194 z"
           id="path7856" />
        <path
           style="fill:#00c6b6;fill-opacity:1;stroke:none;stroke-width:1.76445;stroke-dasharray:none;stroke-opacity:1"
           d="m 171.97065,287.74863 c -0.11764,-0.72548 -0.38728,-3.78928 -0.59921,-6.80845 -1.71578,-24.44389 -0.15971,-48.43978 4.67246,-72.05288 1.38062,-6.74659 4.5649,-19.8758 4.90241,-20.21332 0.22732,-0.22731 10.13195,4.8719 13.8563,7.13366 9.29778,5.64645 16.6561,11.06432 27.95066,20.57986 l 1.41241,1.18993 5.94995,-4.30402 c 27.45505,-19.86016 51.21666,-31.83007 69.64538,-35.08385 4.72371,-0.83402 13.12791,-0.94091 16.46823,-0.20946 2.57482,0.56382 7.25423,2.31992 7.25326,2.72201 -3.3e-4,0.13881 -2.77935,1.03252 -6.17559,1.98602 -7.97053,2.23774 -20.44377,6.3383 -29.12073,9.57339 -53.30441,19.87385 -90.37953,49.84271 -113.03584,91.37005 -2.83969,5.20492 -2.9749,5.38 -3.17969,4.11706 z"
           id="path8586" />
        <path
           style="fill:#e19f20;fill-opacity:1;stroke:none;stroke-width:1.76445;stroke-dasharray:none;stroke-opacity:1"
           d="m 183.89524,320.68955 c -6.28391,-5.4127 -13.33142,-12.10581 -13.33142,-12.66102 0,-0.88919 5.0597,-12.03526 8.38078,-18.46214 12.09602,-23.40786 29.06672,-43.23605 51.02248,-59.6135 24.41961,-18.2153 56.61348,-32.76478 96.13387,-43.44609 l 3.5981,-0.97247 0.98863,1.43504 c 4.01838,5.83282 5.79456,14.35206 4.94474,23.71681 -0.57109,6.29322 -0.48572,6.00323 -3.41338,11.59506 -8.61074,16.44654 -18.43441,29.80953 -31.45285,42.78488 -22.62812,22.55322 -52.61694,39.96256 -91.3844,53.05118 -8.51266,2.87404 -19.49492,6.15405 -20.5389,6.13426 -0.46607,-0.009 -2.63741,-1.57208 -4.94765,-3.56201 z"
           id="path10178" />
        <path
           style="fill:#fab42e;fill-opacity:1;stroke:none;stroke-width:1.76445;stroke-dasharray:none;stroke-opacity:1"
           d="m 163.10453,300.47082 c -11.09141,-12.51767 -18.91964,-23.88903 -25.53098,-37.08654 -13.53339,-27.01523 -15.68532,-53.18405 -5.63378,-68.51021 2.87816,-4.38849 7.27136,-8.03495 12.15725,-10.0908 6.92034,-2.91189 17.88343,-2.69916 28.15731,0.54635 1.99791,0.63114 3.01306,1.14114 2.89319,1.45351 -0.6168,1.60736 -3.98688,15.64195 -5.14408,21.42236 -5.96795,29.81099 -6.93359,61.26198 -2.78685,90.7678 0.51497,3.66421 0.87998,6.71853 0.81113,6.78737 -0.0688,0.0689 -2.28428,-2.31158 -4.92319,-5.28984 z"
           id="path10249" />
        <path
           style="fill:#00aa9c;fill-opacity:1;stroke:none;stroke-width:3.52289;stroke-dasharray:none;stroke-opacity:1"
           d="m 218.81045,204.98649 c -6.79235,-5.66311 -21.7024,-15.48716 -28.96596,-19.08531 -3.4446,-1.70635 -6.38736,-3.16819 -6.53945,-3.24853 -0.46883,-0.24762 3.80766,-12.70802 7.47302,-21.77412 27.94109,-69.111093 84.66477,-125.662105 146.74368,-146.296997 35.27931,-11.7267638 68.11769,-10.7022401 96.75592,3.018685 25.30065,12.121846 45.67981,33.008882 61.58976,63.124654 19.83768,37.550548 9.84966,57.537968 -35.30951,70.659268 -11.82504,3.43585 -28.59439,7.02093 -60.9059,13.02093 -28.87338,5.36156 -43.94004,8.41703 -58.17134,11.79694 l -9.63378,2.28802 -2.89205,-1.97634 c -9.62998,-6.58085 -26.18517,-6.80505 -44.95653,-0.60883 -12.97349,4.28241 -35.67596,16.6496 -52.65663,28.68475 -3.44163,2.43927 -6.61223,4.40761 -7.04577,4.37409 -0.43355,-0.0335 -2.90201,-1.82327 -5.48546,-3.97721 z"
           id="path12186" />
      </g>
      <text
         xml:space="preserve"
         style="font-size:100px;font-family:Chalkduster;-inkscape-font-specification:Chalkduster;fill:#e19f20;fill-opacity:1;stroke-width:4.5"
         x="199.89868"
         y="199.8987"
         id="text391"><tspan
           sodipodi:role="line"
           id="tspan389"
           x="199.89868"
           y="199.8987">Arzt</tspan></text>
    </g>
  </g>
</svg>
